<svg width="19" height="21" viewBox="0 0 19 21" fill="none" xmlns="http://www.w3.org/2000/svg">
<path d="M5.724 20.252C4.62 20.252 3.708 20.048 2.988 19.64C2.268 19.208 1.74 18.644 1.404 17.948C1.068 17.252 0.9 16.508 0.9 15.716C0.9 14.708 1.128 13.88 1.584 13.232C2.064 12.584 2.676 12.068 3.42 11.684C4.164 11.276 4.944 10.94 5.76 10.676C6.576 10.412 7.356 10.16 8.1 9.92C8.844 9.656 9.444 9.356 9.9 9.02C10.356 8.66 10.584 8.204 10.584 7.652V4.664C10.584 4.136 10.5 3.644 10.332 3.188C10.188 2.708 9.912 2.324 9.504 2.036C9.12 1.724 8.58 1.568 7.884 1.568C7.452 1.568 7.032 1.628 6.624 1.748C6.216 1.868 5.856 2.06 5.544 2.324C6.312 2.588 6.876 2.984 7.236 3.512C7.62 4.04 7.812 4.628 7.812 5.276C7.812 6.164 7.5 6.872 6.876 7.4C6.276 7.904 5.556 8.156 4.716 8.156C3.804 8.156 3.096 7.868 2.592 7.292C2.112 6.716 1.872 6.02 1.872 5.204C1.872 4.484 2.052 3.884 2.412 3.404C2.772 2.9 3.3 2.444 3.996 2.036C4.692 1.628 5.532 1.328 6.516 1.136C7.5 0.943999 8.544 0.848 9.648 0.848C10.776 0.848 11.808 0.968 12.744 1.208C13.704 1.424 14.52 1.868 15.192 2.54C15.72 3.092 16.056 3.764 16.2 4.556C16.344 5.348 16.416 6.356 16.416 7.58V17.3C16.416 17.9 16.464 18.32 16.56 18.56C16.68 18.776 16.86 18.884 17.1 18.884C17.316 18.884 17.52 18.824 17.712 18.704C17.904 18.584 18.096 18.452 18.288 18.308L18.684 18.92C18.156 19.352 17.532 19.688 16.812 19.928C16.092 20.144 15.312 20.252 14.472 20.252C13.512 20.252 12.756 20.132 12.204 19.892C11.676 19.628 11.292 19.28 11.052 18.848C10.836 18.416 10.716 17.936 10.692 17.408C10.164 18.272 9.504 18.968 8.712 19.496C7.92 20 6.924 20.252 5.724 20.252ZM8.712 17.66C9.096 17.66 9.432 17.588 9.72 17.444C10.032 17.276 10.32 17 10.584 16.616V9.128C10.392 9.464 10.128 9.788 9.792 10.1C9.48 10.388 9.144 10.688 8.784 11C8.424 11.288 8.076 11.612 7.74 11.972C7.428 12.332 7.164 12.764 6.948 13.268C6.756 13.748 6.66 14.336 6.66 15.032C6.66 15.968 6.852 16.64 7.236 17.048C7.62 17.456 8.112 17.66 8.712 17.66Z" fill="#F48525"/>
</svg>
