<svg width="73" height="30" viewBox="0 0 73 30" fill="none" xmlns="http://www.w3.org/2000/svg">
<path d="M5.724 29.252C4.62 29.252 3.708 29.048 2.988 28.64C2.268 28.208 1.74 27.644 1.404 26.948C1.068 26.252 0.9 25.508 0.9 24.716C0.9 23.708 1.128 22.88 1.584 22.232C2.064 21.584 2.676 21.068 3.42 20.684C4.164 20.276 4.944 19.94 5.76 19.676C6.576 19.412 7.356 19.16 8.1 18.92C8.844 18.656 9.444 18.356 9.9 18.02C10.356 17.66 10.584 17.204 10.584 16.652V13.664C10.584 13.136 10.5 12.644 10.332 12.188C10.188 11.708 9.912 11.324 9.504 11.036C9.12 10.724 8.58 10.568 7.884 10.568C7.452 10.568 7.032 10.628 6.624 10.748C6.216 10.868 5.856 11.06 5.544 11.324C6.312 11.588 6.876 11.984 7.236 12.512C7.62 13.04 7.812 13.628 7.812 14.276C7.812 15.164 7.5 15.872 6.876 16.4C6.276 16.904 5.556 17.156 4.716 17.156C3.804 17.156 3.096 16.868 2.592 16.292C2.112 15.716 1.872 15.02 1.872 14.204C1.872 13.484 2.052 12.884 2.412 12.404C2.772 11.9 3.3 11.444 3.996 11.036C4.692 10.628 5.532 10.328 6.516 10.136C7.5 9.944 8.544 9.848 9.648 9.848C10.776 9.848 11.808 9.968 12.744 10.208C13.704 10.424 14.52 10.868 15.192 11.54C15.72 12.092 16.056 12.764 16.2 13.556C16.344 14.348 16.416 15.356 16.416 16.58V26.3C16.416 26.9 16.464 27.32 16.56 27.56C16.68 27.776 16.86 27.884 17.1 27.884C17.316 27.884 17.52 27.824 17.712 27.704C17.904 27.584 18.096 27.452 18.288 27.308L18.684 27.92C18.156 28.352 17.532 28.688 16.812 28.928C16.092 29.144 15.312 29.252 14.472 29.252C13.512 29.252 12.756 29.132 12.204 28.892C11.676 28.628 11.292 28.28 11.052 27.848C10.836 27.416 10.716 26.936 10.692 26.408C10.164 27.272 9.504 27.968 8.712 28.496C7.92 29 6.924 29.252 5.724 29.252ZM8.712 26.66C9.096 26.66 9.432 26.588 9.72 26.444C10.032 26.276 10.32 26 10.584 25.616V18.128C10.392 18.464 10.128 18.788 9.792 19.1C9.48 19.388 9.144 19.688 8.784 20C8.424 20.288 8.076 20.612 7.74 20.972C7.428 21.332 7.164 21.764 6.948 22.268C6.756 22.748 6.66 23.336 6.66 24.032C6.66 24.968 6.852 25.64 7.236 26.048C7.62 26.456 8.112 26.66 8.712 26.66ZM32.4149 9.848C33.4709 9.848 34.3109 9.98 34.9349 10.244C35.5829 10.508 36.0749 10.844 36.4109 11.252C36.7949 11.708 37.0709 12.296 37.2389 13.016C37.4309 13.736 37.5269 14.708 37.5269 15.932V25.652C37.5269 26.66 37.6829 27.344 37.9949 27.704C38.3309 28.064 38.8949 28.244 39.6869 28.244V29C39.2069 28.976 38.4869 28.952 37.5269 28.928C36.5909 28.88 35.6789 28.856 34.7909 28.856C33.8069 28.856 32.8589 28.88 31.9469 28.928C31.0349 28.952 30.3509 28.976 29.8949 29V28.244C30.5669 28.244 31.0349 28.064 31.2989 27.704C31.5629 27.344 31.6949 26.66 31.6949 25.652V14.204C31.6949 13.652 31.6349 13.184 31.5149 12.8C31.3949 12.392 31.1909 12.092 30.9029 11.9C30.6149 11.684 30.2069 11.576 29.6789 11.576C29.1269 11.576 28.6109 11.72 28.1309 12.008C27.6749 12.296 27.3029 12.704 27.0149 13.232C26.7509 13.736 26.6189 14.312 26.6189 14.96V25.652C26.6189 26.66 26.7509 27.344 27.0149 27.704C27.2789 28.064 27.7469 28.244 28.4189 28.244V29C27.9629 28.976 27.3029 28.952 26.4389 28.928C25.5749 28.88 24.6989 28.856 23.8109 28.856C22.8269 28.856 21.8429 28.88 20.8589 28.928C19.8749 28.952 19.1309 28.976 18.6269 29V28.244C19.4189 28.244 19.9709 28.064 20.2829 27.704C20.6189 27.344 20.7869 26.66 20.7869 25.652V14.276C20.7869 13.196 20.6309 12.404 20.3189 11.9C20.0069 11.372 19.4429 11.108 18.6269 11.108V10.352C19.3949 10.424 20.1389 10.46 20.8589 10.46C21.9389 10.46 22.9589 10.424 23.9189 10.352C24.9029 10.256 25.8029 10.124 26.6189 9.956V12.872C27.1949 11.768 27.9749 10.988 28.9589 10.532C29.9669 10.076 31.1189 9.848 32.4149 9.848ZM47.648 0.847998V25.652C47.648 26.66 47.804 27.344 48.116 27.704C48.428 28.064 48.968 28.244 49.736 28.244V29C49.28 28.976 48.596 28.952 47.684 28.928C46.772 28.88 45.836 28.856 44.876 28.856C43.892 28.856 42.896 28.88 41.888 28.928C40.904 28.952 40.16 28.976 39.656 29V28.244C40.448 28.244 41 28.064 41.312 27.704C41.648 27.344 41.816 26.66 41.816 25.652V5.168C41.816 4.088 41.66 3.296 41.348 2.792C41.06 2.264 40.496 2 39.656 2V1.244C40.424 1.316 41.168 1.352 41.888 1.352C42.992 1.352 44.024 1.316 44.984 1.244C45.944 1.148 46.832 1.016 47.648 0.847998ZM59.528 10.352V11.072C58.712 11.264 57.896 11.636 57.08 12.188C56.264 12.716 55.436 13.4 54.596 14.24L52.58 16.292L52.868 15.716L58.844 26.372C59.084 26.78 59.324 27.152 59.564 27.488C59.828 27.824 60.14 28.076 60.5 28.244V29C60.14 28.976 59.564 28.952 58.772 28.928C58.004 28.88 57.224 28.856 56.432 28.856C55.52 28.856 54.596 28.88 53.66 28.928C52.748 28.952 52.052 28.976 51.572 29V28.244C52.052 28.244 52.376 28.136 52.544 27.92C52.712 27.704 52.688 27.404 52.472 27.02L49.124 20.468C48.908 20.06 48.668 19.796 48.404 19.676C48.164 19.556 47.864 19.496 47.504 19.496V18.812C47.912 18.788 48.272 18.728 48.584 18.632C48.92 18.536 49.232 18.356 49.52 18.092L52.256 15.464C53.096 14.672 53.516 13.964 53.516 13.34C53.54 12.692 53.276 12.164 52.724 11.756C52.196 11.348 51.512 11.12 50.672 11.072V10.352C51.344 10.376 52.076 10.4 52.868 10.424C53.684 10.448 54.38 10.46 54.956 10.46C55.436 10.46 55.964 10.46 56.54 10.46C57.14 10.436 57.704 10.424 58.232 10.424C58.784 10.4 59.216 10.376 59.528 10.352ZM68.0484 4.484V10.352H71.9364V11.072H68.0484V25.796C68.0484 26.396 68.1564 26.828 68.3724 27.092C68.5884 27.332 68.9124 27.452 69.3444 27.452C69.7044 27.452 70.0764 27.332 70.4604 27.092C70.8684 26.852 71.2404 26.444 71.5764 25.868L72.1524 26.228C71.6964 27.212 71.0604 28.004 70.2444 28.604C69.4524 29.204 68.4084 29.504 67.1124 29.504C66.3204 29.504 65.6124 29.396 64.9884 29.18C64.3884 28.988 63.8844 28.688 63.4764 28.28C62.9484 27.752 62.6004 27.104 62.4324 26.336C62.2884 25.544 62.2164 24.524 62.2164 23.276V11.072H59.3364V10.352H62.2164V5.852C63.3444 5.852 64.3764 5.744 65.3124 5.528C66.2724 5.312 67.1844 4.964 68.0484 4.484Z" fill="#F48525"/>
</svg>
